<?xml version="1.0" encoding="UTF-8"?>
<svg id="Layer_1" data-name="Layer 1" xmlns="http://www.w3.org/2000/svg" viewBox="0 0 421.33 539.55">
  <path d="M171.25,2.74c3.8,7.77,7.73,15.76,9.18,24.35,1.29,18.34,8.51,36.57,12.45,54.62,1.6,7.33,1.68,16.51,2.75,24.15s2.77,15.73,3.91,23.6c1.06,1.36,1.9.17,1.99-1.48.1-1.92.16-4.14.01-6.03-2.2-27.91-6.61-55.93-9.02-83.98-.36-4.15.55-8.95-.04-12.96-.49-3.32-3.56-4.93-2.54-8.55,1.31-4.64,8.1-11.76,13.16-11.96,1.09-.04,6.5.71,7.75.98.76.16.57,1.45,1.43,1.91,1.55.82,3.42,1.01,4.92,2.4,3.64,3.37,3.58,7.39,5.43,11.07,3,5.97,7.87,12.77,10.11,18.89.91,2.48,6.44,17.39,6.5,18.36.16,2.88-.94,7.18-.76,10.9.12,2.55,2.33,7.7.05,8.99-.51.29-1.78-.76-2-.54-.73.76,2.9,6.36,3.49,8.01,3.15,8.84,2.77,17.48,3.55,26.35.3,3.41,3.07,11.13.79,14.47-.53.78-3.52.89-3.83,1.19-.64.61,6.82,12.93,7.73,15.76,1.45,4.53,3.34,21.67,1.26,25.49-.62,1.15-2,1.04-2.51,1.69-1.31,1.69.37,5.88,1.3,7.75,1.72,3.47,6.07,10.2,8.36,13.64,4.43,6.63,8.17,6.91,8.82,16.1.37,5.26-1.98,13.52,4.02,7.04,2.13-2.31,2.95-5.24,4.32-7.19,7.22-10.3,14.36-19.74,22.39-29.61,7.04-8.66,7.77-10.22,10.77-20.73,2.52-8.85,7.25-15.62,14.53-21.47,4.21-3.38,7.83-5.66,13.27-3.23,1.46.65,11.22,10.26,11.56,11.43.4,1.34.73,8.62.63,10.43-.71,12.06-7.99,20.51-8.43,31.36-.31,7.64-.68,7.86-2.74,15.31-.94,3.38-1.44,8.84-2.45,11.55-.63,1.7-2.81,1.54-3.63,3.37-1.85,4.17-2.75,15.63-4.48,21.52-5.51,18.81-12.32,25.94-23.73,40.28-8.15,10.25-14.87,21.56-21.81,33.18-1.51,2.53-3.1,7.48-4.72,9.28-1.44,1.61-4.71,1.77-5.34,3.67-1.23,3.73,4.58,18.92,5.61,24.11,1.5,7.53,1.64,15.09,2.35,22.65.3,3.18,3.04,8.1.4,10.62-1.01.96-2.43.69-3.21,1.26-2.38,1.72-5.96,8.87-7.52,10.48-.74.77-6.11,2.83-6.74,2.23-.25-.24-1.76-6-1.81-6.75-.15-2.14.91-3.97.73-6.62-.47-6.93-3.39-16.17-4.84-23.23-.72-3.48.21-7.26-2.21-10.79-4.51-6.59-6.37,2.6-6.56,7.08-.03.81,1.84,6.81-.82,5.31-1.36-.76-2.64-5.78-4.48-7.53s-5.64-2.23-7.07-4.17c-.78-1.06-3.58-7.36-2.94-8.26.24-.34,6.26-1.78,7.89-2.62,9.29-4.77,24.28-33.8,32.1-43.9,1.9-2.45,5.09-4.93,6.86-7.11.8-.98,1-3.14,2.1-3.93,2.75-1.98,3.97,4.09,5.62,4.48,1.92.45,6.11-4.97,9.41-3.96l-3-2c-.74-3.02,1.48-1.58,2.01-2,1.4-1.13-5.01-3.38-4.99-.49,0,.51,2.5,1.6,1.99,2.99-1.99,2.05-4.21-4.01-4.57-5.49-1.06-4.43,6.18-11.04,7.98-15.08,1.08-2.41.89-5.17,2.54-7.46,2.69-3.72,12.72-7.43,13.11-8.11,1.93-3.33,2.29-10.65,3.37-14.41,2.7-9.36,6.94-15.65,8.8-25.2.38-1.94,1.72-4.65,1.76-6.24.03-.92-2.88-.6-2.96-.47-.24.4-.02,1.88-.59,2.88-.72,1.25-2.19,1.96-2.92,3.13-1.43,2.29-2.06,5.02-4.05,6.94-.43,0-3.28-4.54-3.69-4.8-1.14-.72-3.76,1.44-5.82-.66-3.34-3.39,1.1-5.43,2.46-7.58,1.63-2.58,3.58-7.78,5.47-9.52,3.36-3.08,11.43-1.83,14.32-8.69.6-1.41,1.96-8.83,1.79-10.19-.26-1.96-2.9-4.23-3.56-6.51-2.25-7.72,5.25-13.74,4.53-16.53-.26-1.02-1.7-1.86-3.01-1.03s-6.48,7.07-7.43,8.57c-3.74,5.87-3.09,10.6-5.08,15.92-.75,2.01-8.17,12.19-9.95,14.05-5.26,5.49-6.36,3.1-10.01,11.99-3.53,8.58-2.68,8.08-8.53,15.47-.93,1.18-1.05,2.84-1.95,4.05-2.35,3.16-6.9,3.85-10.16,5.84-7.72,4.71-13.61,20.22-19.68,27.32-3.78,3.81-8.01,19.65-11.15,21.85-.75.52-2.79.72-3.02.46-.37-.4-2.82-9.44-2.96-10.57-.66-5.55,2.75-9.85,3-14.95.11-2.15-1.06-4.86-.86-5.86.18-.95,10.01-12.66,11.65-15.28s2.73-5.94,4.31-8.68c.62-1.08,2.57-2.48,2.6-3.14.02-.29-1.92-4.64-2.35-5.42-2.49-4.47-8.18-11.47-8.94-16.09-.3-1.81.68-7.18-1.98-7.99-.79-.24-2.12-.42-2.53.58-1.15,2.82-1.82,9.48-2.43,10.43-.5.77-3.18,2.01-4.52,3.48-6.17,6.74-14.79,18.88-20.45,26.55-1.88,2.56-2.27,6.58-5.55,7.95l-1-2c-.12,9.04-4.17,17.52-5.92,26.59-.49,2.53.37,11.84-4.58,10.4-.78-.23-4.03-10.12-4.28-11.72-.84-5.21.88-4.49,1.99-7.56,4.17-11.53,9.18-21.98,15.48-31.7,3.85-5.94,9.1-11.46,12.33-16.68,2.01-3.26,2.46-9.37,4.69-13.1.76-1.27,2.16-1.22,2.3-1.88.68-3.29-.74-6.8-.68-9.68.17-7.9,6.87-10.58,7.7-18.14.59-5.36-1.72-18.59-7.06-21.03-1.27-.58-3.6-.31-3.89-.63-.5-.56.52-2.71-.61-2.93-1.95-.38-11.84.45-13.73,1.31-1.63.74-4.03,3.51-2.74,4.74,2.83,2.7,19.6.23,19.8,4.49.14,3.06-3.48,2.58-5.35,3.46-12.3,5.81-19.19,3.43-31.89,5.12-6.01.8-13.3,3.52-19.31,4.69-4.16.81-10.97.5-14.77,1.73s-8.01,7.66-11.92,6.48c-3.1-.94-.36-3.58-.03-4.93.37-1.46.28-3.11.69-4.31.89-2.64,5.65-4.33,5.53-8.02-.16-4.67-4.45-14.74-5.47-20.47s.51-10.99-.49-15.53-5.69-11-4.81-16.17c.21-1.25,2.76-3.93,2.02-4.52-.85-.67-4-1.08-5.05-2.7-2.16-3.33-3.47-12.76-5.88-16.88-6.23-7.79-.44,5.26-1.49,6.6-.87,1.11-3.69,1.03-5.29,1.75-2.31,1.05-5.15,3.45-6.28,5.72-1.28,2.57,4.28.52,4.96,3.07s-4.36,8.73-3.83,11.7c.24,1.34,3.12,5.32,4.34,5.41,2.56.19,13.92-6.4,14.52-5.7-.23,4.31,2.5,8.43,2.96,12.62.07.68.03,7.33-.08,7.7-.68,2.48-11.69,5.85-13.94,4.24-3.01-2.16-1.71-7.61,1.06-9.55-4.31.49-5.6-4.45-6.01-8-1.68-.27-1.11,2.44-1,3.5,1.02,9.86,5.1,22.03,5.99,31.11.16,1.62-.78,3.31-.5,4.5.21.92,8.49,13.79,9.89,16.02,1.01,1.61,5.6,6.91,5.6,7.37s-2.84,2.86-3.7,3.29c-2.72,1.36-5.68.38-8.48,1.47-3.5,1.37-12.96,7.88-15.27,10.76-1.65,2.06-2.44,6.2-4.03,7.98-1.92,2.16-4.6-1.22-7.31-1.19-1.14-1.43-.17-3.41-.64-4.82-.69-2.06-3.61-4.41-3.6-6.46,0-.22,3.07-2.77,3.28-2.85,2-.83,4.09-.3,5.78-1.19-1.3-1.34-1.91-3.34-2.97-4.77-1.69-2.27-5.89-5.69-7.48-7.77-2.38-3.12-4.89-7.08-5.55-10.96-2.6.7-.09,5.41.99,6.5l-9.49,6.42-4.49-5.42c-.28-.66,2.37-.44,3.5-1.5,1.01-.95,6.75-8.83,7.04-9.91.4-1.51-3.53-11.37-4.61-13.32-.5-.9-1.54-.87-1.91-1.48-1.02-1.73-5.1-10.22-6.52-10.24-.48,0-2.03,2.5-2.49,1.94-1.8-2.2,2.07-3.29,1.99-3.49-.9-2.34-5.29-5.93-7.05-7.99-.81-.96-.67-2.49-1.24-3.23-1.44-1.87-6.49-4.2-8.25-1.31-2.31,3.81,2.52,18.88,5.53,22.53,5.75,6.98,3.65-1.37,2-5.5l6.51,4.04c2.44.42,1.61-2.99,3.48-3.04,1.58,2.22,1.21,7.01,3.88,7.12-.51,5.5-12.7,6.13-11.74,11.15.57,3,4.64,8.92,6.11,12.05.45.96-.19,2.27-.01,2.48,14.51,17.32,21.83,37.31,30.96,58.49,10.98,25.46,11.82,52.19,25.39,76.61,2.78,5.01,8.12,13.37,11.35,17.62,1.48,1.95,4.21,1.91,6,3.03,5.18,3.22,4.46,8.54,6.85,13.15,1.37,2.64,4.27,4.62,5,7.99.62,2.89-.74,9.76-.37,10.3,1.51,2.2,9.7,2.24,12.29,4.78,14.63,2.43,25.71.62,38.87-5.76,2.62-1.27,2.71-3.43,5.4-4.55,2.07-.86,7.94-2.74,8.88.16,1.3,4.01-.01,7.98-3.35,10.38-4.74,3.41-10.22,8.18-14.57,12.47-.71.7-.81,2.29-1.05,2.46-.48.36-2.83-.95-4.29-.9-2.56.08-6.18,1.71-9.1,1.96-3.81.33-15.68-1.94-17.49.02-.52.56,3.66,8.9-5.44,7.98-3.34-.34-13.49-8.86-17.09-10.99-1.17-3.28.13-6.7-.93-10.07-.41-1.31-6.66-13.58-7.69-15.31-3.65-6.16-11.57-12.43-16.27-18.73-9.28-12.43-15.95-27.99-21.78-42.22-6.71-16.39-11.05-33.04-18.83-48.99-.29-.6-1.55-.56-1.95-1.42-4.68-9.96-2.06-20.24-4.52-30.3-1.28-5.24-6.82-10.51-8.07-14.93-.89-3.14-.29-5.76-1.71-9.29-3.07-7.61-11.06-15.74-14.23-23.77-2.09-5.27-1.72-10.04-2.95-15.05-2.37-9.65-10.47-19.72-8.54-30.41.12-.65,2.87-8,3.18-8.32,2.15-2.16,15.68-4.03,18.77-2.68,5.37,2.35,12.43,16.97,15.44,22.56,3.54,6.57,3.91,6.55,8.04,11.94,5.63,7.34,6.14,14.09,11.54,21.48,1.75,2.4,6.79,10.3,8.44,11.56,1.48,1.14,3.51.65,4.61,1.39.75.51,1.86,6.5,3.48,3.54.86-1.56.76-9.37.45-11.47-.46-3.02-3.14-7.39-4.1-10.9-1.31-4.82-1-11.57-2.03-14.96-.42-1.39-2.43-2.13-2.63-3.29-2.04-11.94-1.5-26.11-3.24-37.84-1.56-10.53-11.67-24.41-10-37,.81-4.67-.8-15.87,1.58-19.5.74-1.12,3.38-3.77,4.5-4.51,6.82-4.51,20.81-.99,25.4,5.52,3.9,5.52,7.29,21.91,8.89,29.15.36,1.61-.47,3.12.08,4.8.89,2.75,4.7,5.08,6.44,7.65,8.58,12.72,9.07,42.99,13.43,59.57.72,2.72,1.61,8.38,5.21,7.78,1.84-.31.98-1.81.8-2.76-2.14-11.28-3.72-23.47-6.53-34.49-1.58-6.19-7.34-18.33-7.74-23.35-.16-2.04.88-3.73.79-5.68-.66-14.42-6.04-27.68-8.54-41.48-1.77-9.75-3.09-23.75,7.03-29.46,1.64-.92,6.38-3.16,8.16-3.84,5.75-2.19,8.97-1.88,14.27,1.33ZM166.74,22.24c-.3-.3-3.7-5.89-4.43-7.07-1.34-2.17-.2-5.07-4.22-4.73-5.64.48-9.18,9.39-8.49,14.46.25,1.81,1.83,7.86,2.49,9.5,1.24,3.08,4.5,3.91,5.6,6.87,2.94,2.1,8.37-4.72,10.35-4.6,2.55.15,6.42,10.05,5.49,12.79-4.88.44-10.64,1.74-15.47,3.04-7.18,1.93.81,3.71,2.42,4.5,3.3,1.61.78,3.01.28,5.21-.61,2.68-2.12,12.5-2.18,14.86-.07,2.74,1.78,6.22.94,9.39,2.35.44,2.82-2.22,4.69-2.8,2.39-.74,5.89-.24,8.56-1.44,1.64-.73,2.62-2.81,4.24-2.82,5.09-.03,7.73,17.04,8.09,21.03.11,1.24-.21,1.28-1.1,2.03-3.49-.84-19.37-4.13-20.43.6-.34,1.51,4.42,9.32,5.24,11.6,2.06,5.73,4.12,15.35,5.45,21.55.37,1.74.3,3.49.26,5.25,1.72-.37,1.68-2.85,3.43-4.06.89-.61,2.97-1.56,3.55-.94.31.33.79,7.01,1.55,8.99.33.85.29,2.82,1.95,2,3.92-1.92,4.67-24.85,4.52-29.51-.19-5.93-.39-12-.53-17.99-.25-10.22-4.13-13.83-6.23-22.25-2.62-10.55-5.14-47.56-12.51-53.99-1-.87-2.76-.72-3.53-1.48ZM210.25,20.73c-5.38-6.18-9.06,3.85-9.65,8.29-.47,3.51.01,14.88,1.96,17.66,2.19,3.12,3.62,1.43,3.92-1.81.11-1.17-.93-2.8-.51-3.46,1.93-3.03,7.03,0,8.47-1.04.37-.27.43-2.4,1.01-3.24.7-1.02,2.65-1.04,3.02-2.27.89-2.89-4.68-8.23-6.42-10.44-.88-1.12-.99-2.75-1.81-3.68ZM120.26,41.72c-1.64-2.15-5.57-2.5-7.73-.75-.79.64-3.53,6.87-3.78,8.21-1.69,9.28,3.35,16.54,4.78,25.28,1.84-.9,6.51-7.55,7.64-7.92,2.28-.74,6.12,2.7,7.22-.71,2-6.23-3.95-11.72-6.07-16.66-.89-2.07-1.18-6.29-2.06-7.44ZM223.03,52.46c-3.96-1.06-11.99.78-16.5,0v14.5c0,.17.71.62.53,1.54-.24,1.23-1.83,2.41-1.62,4.36.03.28,3.29,2.28,3.83,2.43.83.24,15.59-1.86,16.3-2.29.66-.4,1.06-1.17.94-1.97-1.04-3.55-1.28-7.43-1.47-11.08-.1-1.92,1.52-6.55-2.01-7.5ZM229.52,124.45c.47-.53.58-12.19.4-14.09-.28-2.95-1.07-8.27-1.64-11.16-.98-4.94-1.49-12.09-7.23-11.79-4.29.22-11.06,1.77-11.58,6.5-1.03,9.38,1.66,19.16,1.05,28.55,3.47,1.42,10.01-2.19,12.36-1.78,1.36.24,5.67,4.86,6.64,3.77Z"/>
  <path d="M157.12,517.83c-4.54-5.15-13.05-13.52-16.61-18.85-1.96-2.94-2.48-7.72-3.97-10.8-1.22-2.52-3.65-1.94-4.05,1.73-1.02,9.33,3.2,21.65,3.94,31.14.19,2.42,1.02,6.11-1.58,7.21-1.68.71-12.31,2.68-14.28,2.73-2.45.07-3.86-4.1-4.02-6.15-.17-2.22.98-3.83.93-5.79-.1-3.85-2.04-8.89-2.03-13.1.03-10.28.1-20.65-.91-31.01-.42-4.26-4.47-18.78-2-21.49,1.57-.32,2.31.12,3.54.95.85.57,6.26,5.44,7.14,6.36,3.79,3.97,3.16,4.26,8.26,8.24,6.76,5.27,7.89,6.63,13,13,1.06,1.32,3.17,1.77,4.52,3.48,2.14,2.72,3.08,9.35,7.02,9.98,2.51.4,1.63-3.42,1.51-4.52-.89-8.55-5.15-21.86-4.92-30.03.26-9.24,4.07-7.17,11.92-8.03,4.91-.54,2.7,8.17,2.98,12.08,1.32,18.63,1.25,35.18,5.26,53.74.58,2.69,3,6.86,2.79,9.23-.19,2.14-3.78,5.69-6.04,4.05-4.03-4.82-8.27-9.46-12.41-14.16Z"/>
  <path d="M418.22,464.77c2.02,1.99,4.57,7.04,2.08,9.47-1.98,1.93-13.5,3.22-17.01,4.48-6.57,2.35-4.41,5.77-4.74,11.25-.64,10.42.09,25.38,2.03,35.93.35,1.9.42,7.19.21,8.24-.17.82-3.96,3.13-4.89,3.21-2.48.19-5.38-.84-7.76-.81-3.26.05-7.18,3.46-7.66-2.53-.5-6.28.82-13.01.71-18.86-.14-8.21-1.5-16.97-2.68-25.17-.26-1.84.43-4.16-.12-5.88-1.52-4.79-15.11,1.31-16.92-.06-1.56-1.17-2.24-10.87-1.04-12.91.73-1.24,14.37-4.9,16.84-5.41,6.42-1.33,13.23-1.42,19.65-2.35,3.74-.54,12.94-3.46,15.55-2.41.53.21,5.28,3.36,5.73,3.81Z"/>
  <path d="M288.6,535.41c-.53-.37-3.88-10.08-4.58-11.94-1.7-4.56-1.99-6-4.38-10.63-1.53-2.96-.4-5.5-5.46-5.11-1.63.13-12.35-2.47-12.64-.77-.68,3.93-.1,11.59-.03,16,.03,1.7,1.04,3.27,1.05,4.99.02,2.08-1.65,8.7-3.69,9.34-1.32.42-14.81,2.73-15.34,2.16-1.72-1.85,1.98-9.4,2.54-11.96,4.19-19.31,8.98-38.12,12.68-57.32.7-3.62,5.89-13.02,10.13-11.52,2.45.86,6.39,13.77,7.91,17.03,5.5,11.81,17.38,31.48,19.65,43.35.45,2.38,1.56,9.93.97,11.8-.26.84-8.14,5.05-8.81,4.57ZM268.52,494.46c3.01-6.69-2.01-11.48-2.51-3.51-.1,1.56.21,4.36,2.51,3.51Z"/>
  <path d="M352.39,461.6c1.77,1.54.17,6.55.1,8.36-.08,2.19,2.07,3.58-.41,5.56-2.29,1.83-4.25-.18-7.02-.12-9.06.19-26.08,8.75-30.29,16.8-2.4,4.6-2.67,7.93,1.07,11.94,5.65,6.09,14.81,10.41,23.19,10.4,3.41,0,15.47-3.32,17.39-1.98,1.22.85,4.27,12.96,3,14.77s-13.73,1.92-16.41,2.1c-6.96.45-11.48,1.53-18.89-.08-4.87-1.06-7.42-2.58-10.58-6.42-3.61-4.38-6.4-8.1-10.23-12.21-1.22-1.31-3.33-7.2-3.66-8.96l-.91-6.22c-.4-2.16.88-7.15,2.11-8.97l5.99-8.82c5.23-3.25,10.09-9.4,15.78-11.72,3.06-1.25,21.19-4.81,24.8-5.03.93-.06,4.65.3,4.97.58Z"/>
  <path d="M53.45,472.53l-1.97,11.88c-5.91-.45-12.35,3.32-17.52,3.98s-13.13.16-16.55,2.9c-.98.79-3.47,2.31-3.92,7.62-.19,2.25.89,12.15,2.29,13.31.19.15,4.19,1.91,4.43,1.95,1.73.3,11.48,1.27,13.84,1.37,3.05.12,6.07-1.39,10-1.09,1.84.14,9.07,1.66,9.2,3.45.05.71-.76,1.97-.75,3.05.02,2.4,1.42,5.52.14,7.04-2.32,2.74-7.58.08-11.61.44-4.43.4-10.31,1.54-15.05,1.37-3.2-.11-7.62-1.55-11.16-2.13-7.18-1.19-8.23,2.06-11.47-6.53-1.94-5.12-3.56-19.63-3.3-25.21.07-1.6,1.18-6.3,2.02-7.46,1.17-1.61,4.31-4.85,5.41-6.59,2.75-4.36,7.5-2.83,11.35-3.65,7.48-1.6,14.53-2.7,21.99-4.01,4.33-.76,7.94-4.41,12.65-1.7Z"/>
  <path d="M234.53,461.46c.93,2.56-.04,4.8-.03,7.49,0,1.09.71,2.24.71,3.2,0,7.37-3,3.04-6.95,3.5-2.15.25-13.85,2.73-14.39,4.19l2.74,54.87c-.21,3.67-9.83,5.59-12.07,3.66-.45-.39-1.11-8.34-1.28-10.24-.94-10.68.62-33.9-4.19-42.7-3.54-6.46-5.47-2.62-11.33-1.23-1.62.39-9.61,2.08-10.26,1.79-3.02-1.36-3.55-10.61-.29-12.34,11.87-6.31,29.36-5.9,42.58-8.42,4.97-.95,9.81-2.74,14.75-3.75Z"/>
  <path d="M66.71,515.27c-.23-.32-5.3-11.44-5.36-12.4-.46-6.62,2.59-14.5,6.77-19.75,2.26-2.83,11.44-6.22,15.08-6.35,1.64-.06,7.92.65,9.39,1.12s10.85,9.3,11.44,10.56c.8,1.68.26,3.54.73,5.27.28,1.03,1.47,1.82,1.74,3.25,2.13,11.52-6.87,24.93-17.97,28.07-5.59,1.58-14.17-5.39-18.65-8.46-.91-.63-2.83-.83-3.17-1.31ZM84.31,487.69c-9.49.53-15.3,8.88-9.43,17.92,1.57,2.42,14.42,1.55,17,.71,2.94-.96,3.91-10.37,2.44-13.14s-6.73-5.67-10.01-5.49Z"/>
  <path d="M209.52,190.46l-1.93,8.49c-2.49,1.11-4.76,2.54-6.99,4.09-17.59,12.22-35.52,24.63-50.76,39.74-3.41,3.38-12.36,18.21-18.1,13.47-.57-.47-.71-2.22-1.33-3.14-1.58-2.34-4.01-3.31-2.76-7.01,4.09-3.24,7.75-6.9,11.4-10.61,10.66-10.85,21.5-14.43,33.2-23,9.36-6.86,17.35-14.45,28.27-19.53,1.3-.61,8.45-3.05,9-2.49Z"/>
  <path d="M116.65,232.33c-.24-.17-2.13-4.87-2.12-5.39.04-1.34,1.69-2.39,1.99-4,.26-1.4-.28-6.2.02-6.48.27-.26,2.06.64,3.1.49,7.89-1.13,9.15-2.53,16.21-5.68,3.19-1.42,12.82-4.42,14.17-6.88.57-1.04.37-2.68.54-2.93.37-.55,3.82,1.08,5.27.84,4.34-.73,11.68-7.48,17.47-8.67,3.91-.81,12.56,3.7,10.83-3.18-.58-2.32-4.06-9.21-5.39-11.69-1.72-3.2-8.31-8.07-.18-7.88,1.48,4.66,5.52,9.84,7.04,14.03.93,2.56.52,4.87,1.14,6.86.57,1.83,3.21,2.5,2.32,3.7-.23.32-5.4,4.35-6.17,4.84-4.52,2.87-9.98,4.09-14.58,6.42-9.03,4.58-18.33,9.35-27.03,13.97-5.1,2.72-16.88,11.09-21.35,11.68-.94.12-2.62.41-3.28-.06Z"/>
  <path d="M196.52,331.46l-2.94-.04c-1.3-6.55-5.89-12.66-7.58-18.94-1.02-3.8-2.42-13.8-2.38-17.56.03-2.9,3.5-5.52,3.9-7.99s-1.01-5.37-.27-7.17c.57-1.38,5.33-6.9,6.78-7.29,3.32,3.59.02,6.68-.33,9.72-.21,1.88.96,3.66.89,5.74-.06,1.68-1.11,3.22-1.04,4.95.17,4.08,3.89,7.44,4.74,10.31.46,1.53,2.25,9.5,2.29,10.79.17,4.72-4.72,12.07-4.07,17.48Z"/>
  <path d="M204.52,158.46c.94.86-3.62,5.55-3.97,7.52-.59,3.35,1.06,7.21.53,9.48s-3.43,7.97-6.08,7.82c-3.28-.18-10.8-20.9-9.46-22.79.55-.78,18.27-2.68,18.97-2.03Z"/>
  <path d="M135.52,180.46c.68.67-.85,4.23-.85,5.5-.01,1.87,1.34,5.84,2.39,7.47,1.62,2.5,6.27,4.75,1.41,8.48-.75.58-9.86,5.55-10.45,5.54-1.78-.05-5.15-17.51-4.35-20.29s10.07-8.45,11.85-6.69Z"/>
  <path d="M232.41,357.57c.65.45,6.78,12.04,7.66,13.85.78,1.6,4.46,9.71,4.48,10.58.05,2.37-3.43,3.29-4.88,2.3-.37-.25-2.85-5.58-3.69-6.79-3.48-4.97-7.43-10.24-13.45-12.06,1.62-2.06,6.89-9.97,9.88-7.88Z"/>
  <path d="M168.52,169.46c-1.33,3.35,4.43,14.8,2.91,16.9-.31.42-8.46,3.84-9.84,3.03-.08-6.18-8.2-12.72-2.06-17.44l9-2.49Z"/>
  <path d="M288.53,248.46c1.29,1.23-1.54,5.99-5.32,4.86-3.58-4.11-11.28-4.33-10.68-10.86,5.03-1.43,6.02,2.65,9.27,4.22,1.49.72,6.3,1.38,6.73,1.78Z"/>
  <path d="M61.53,520.46c.75-.81,11.4,3.59,7.52,10.03-.37.62-5.7,2.96-6.04,2.94-2.29-.16-2.27-12.12-1.49-12.97Z"/>
  <path d="M279.3,258.68c1.59,1.54.3,5.4-1.28,5.78-1.95.47-2.26-2.88-4.19-3.8-1.79-.85-5.21-1-7.29-1.22l1-6.98c2.38,2.38,10.03,4.54,11.76,6.22Z"/>
  <path d="M173.48,335.47c.58.61,2.7,7.33,2.04,7.98s-5.95-.36-7.02-1.47c-1.36-1.41-.65-3.63-1.97-5.03l6.94-1.48Z"/>
  <path d="M201.53,342.45c-1.9-1.79,4.44-6.15,5.66-6.83,5.49-3.09,5.75,2.99.7,5.7-1.37.74-5.57,1.88-6.36,1.13Z"/>
  <path d="M104.31,525.67c.96.93.9,4.17.14,4.71-1.42,1.01-7.36-.13-7.88-2.53-.63-2.95,5.3-4.56,7.74-2.18Z"/>
  <path d="M166.52,294.46c1.19,1.34,1.35,5.82.06,7.55-2.52,3.37-4.54-.52-4.86-3.21-.3-2.51,3.45-5.85,4.8-4.34Z"/>
  <path d="M293.52,232.46c1.7,1.88-5.03,12.19-8.99,5.49l8.99-5.49Z"/>
  <path d="M137.52,138.46c-1.82,1.97-8.6-3.77-6.99-4.99.57-.43,4.7-2.21,5.47-2.01,1.85.49,1.94,6.54,1.52,7Z"/>
  <path d="M115.02,206.47c.32,0,5.48,3.04,5.47,3.47,0,.41-1.77,3.15-2.58,3.4-6,1.87-4.94-6.92-2.89-6.88Z"/>
  <path d="M185.53,461.46c-.53,2.15-3.12,1.77-4.55,2.94-.44.36-4.45,6.3-5.44,5.05-.39-.49-.66-2.72-.28-3.68,1.57-4.05,6.6-3.58,10.28-4.31Z"/>
  <path d="M358.59,464.4c-.63-.86-.13-4.39,1.53-4.87,4-1.16,8.13,3.87,2.42,5.52-.94.27-3.69-.3-3.95-.65Z"/>
  <path d="M135.52,33.45c-1.69,1.74-8.28-5-7-5.99.2-.15,4.45-.98,5.01-.59,1.27.88,2.74,5.81,1.99,6.58Z"/>
  <path d="M80.52,145.46c.86.86-3.45,6.13-4.5,6.98-6.89-3.5,3.84-7.64,4.5-6.98Z"/>
  <path d="M114.53,522.46c-.1.12-2.67.76-3.02.56-2.34-1.37-3.84-5.81-.48-6.56,2.34-.52,3.77,5.68,3.49,6Z"/>
  <path d="M187.46,341.53c.28.4.17,3.68-.03,3.83s-4.71,1.26-4.9,1.1c-.63-.55-.72-3.89.19-4.81s4.22-.86,4.74-.12Z"/>
  <path d="M123.52,25.45c-.68.67-4.82-.94-5.57-1.98s1.07-5.06,4.05-2c.6.61,2.03,3.47,1.51,3.98Z"/>
  <path d="M153.52,190.45c-.73.73-5.86-.3-4.99-2.48,2.08-5.24,6.49.98,4.99,2.48Z"/>
  <path d="M143.33,181.65c.87.82,1.42,3.53-.32,3.81-1,.16-4.49-1.91-4.47-2.5.04-1.32,3.06-2.94,4.79-1.3Z"/>
  <path d="M108.53,529.45c-1.42-1.42,4.19-6.23,4.99-2.49.53,2.46-4.33,3.15-4.99,2.49Z"/>
</svg>